<svg version="1.1" xmlns="http://www.w3.org/2000/svg" xmlns:xlink="http://www.w3.org/1999/xlink" viewBox="-9.6 -9.6 51.20 51.20" xml:space="preserve" width="26px" height="16px" fill="#fff" stroke="#fff"><g id="SVGRepo_bgCarrier" stroke-width="0" transform="translate(0,0), scale(1)"><rect x="-9.6" y="-9.6" width="51.20" height="51.20" rx="25.6" fill="#008000" strokewidth="0"></rect></g><g id="SVGRepo_tracerCarrier" stroke-linecap="round" stroke-linejoin="round"></g><g id="SVGRepo_iconCarrier"> <style type="text/css"> .st0{fill:none;stroke:#fff;stroke-width:2.2399999999999998;stroke-linecap:round;stroke-linejoin:round;stroke-miterlimit:10;} .st1{fill:none;stroke:#fff;stroke-width:2.2399999999999998;stroke-linejoin:round;stroke-miterlimit:10;} </style> <line class="st0" x1="3" y1="11" x2="29" y2="11"></line> <g> <path d="M7,9C6.7,9,6.5,8.9,6.3,8.7C6.1,8.5,6,8.3,6,8c0-0.3,0.1-0.5,0.3-0.7c0,0,0.1-0.1,0.1-0.1c0.1,0,0.1-0.1,0.2-0.1 C6.7,7,6.7,7,6.8,7c0.1,0,0.3,0,0.4,0c0.1,0,0.1,0,0.2,0.1c0.1,0,0.1,0.1,0.2,0.1c0,0,0.1,0.1,0.1,0.1c0.1,0.1,0.2,0.2,0.2,0.3 C8,7.7,8,7.9,8,8c0,0.1,0,0.3-0.1,0.4C7.9,8.5,7.8,8.6,7.7,8.7C7.5,8.9,7.3,9,7,9z"></path> </g> <g> <path d="M10,9C9.7,9,9.5,8.9,9.3,8.7C9.1,8.5,9,8.3,9,8c0-0.1,0-0.3,0.1-0.4c0.1-0.1,0.1-0.2,0.2-0.3c0.1-0.1,0.2-0.2,0.3-0.2 C10,6.9,10.4,7,10.7,7.3c0.1,0.1,0.2,0.2,0.2,0.3C11,7.7,11,7.9,11,8c0,0.3-0.1,0.5-0.3,0.7C10.5,8.9,10.3,9,10,9z"></path> </g> <g> <path d="M13,9c-0.1,0-0.3,0-0.4-0.1c-0.1-0.1-0.2-0.1-0.3-0.2c-0.1-0.1-0.2-0.2-0.2-0.3C12,8.3,12,8.1,12,8c0-0.1,0-0.3,0.1-0.4 c0.1-0.1,0.1-0.2,0.2-0.3c0.4-0.4,1-0.4,1.4,0c0.1,0.1,0.2,0.2,0.2,0.3C14,7.7,14,7.9,14,8c0,0.1,0,0.3-0.1,0.4 c-0.1,0.1-0.1,0.2-0.2,0.3C13.5,8.9,13.3,9,13,9z"></path> </g> <path class="st0" d="M27,5H5C3.9,5,3,5.9,3,7v18c0,1.1,0.9,2,2,2h22c1.1,0,2-0.9,2-2V7C29,5.9,28.1,5,27,5z"></path> <polyline class="st0" points="11,16 8,19 11,22 "></polyline> <polyline class="st0" points="21,16 24,19 21,22 "></polyline> <line class="st0" x1="18" y1="15" x2="14" y2="23"></line> </g></svg>