<?xml version="1.0" encoding="UTF-8"?>
<svg xmlns="http://www.w3.org/2000/svg" xmlns:xlink="http://www.w3.org/1999/xlink" width="16px" height="16px" viewBox="0 0 16 16" version="1.1">
<g id="surface1">
<path style=" stroke:none;fill-rule:nonzero;fill:rgb(34.509805%,39.607844%,94.901961%);fill-opacity:1;" d="M 13.554688 2.820312 C 12.519531 2.332031 11.410156 1.980469 10.253906 1.78125 C 10.109375 2.039062 9.945312 2.382812 9.828125 2.660156 C 8.597656 2.472656 7.378906 2.472656 6.171875 2.660156 C 6.058594 2.382812 5.886719 2.039062 5.742188 1.78125 C 4.585938 1.980469 3.476562 2.335938 2.441406 2.820312 C 0.351562 5.976562 -0.214844 9.054688 0.0664062 12.089844 C 1.453125 13.125 2.796875 13.753906 4.117188 14.164062 C 4.441406 13.71875 4.734375 13.238281 4.984375 12.738281 C 4.507812 12.554688 4.050781 12.332031 3.617188 12.074219 C 3.734375 11.988281 3.84375 11.898438 3.953125 11.808594 C 6.585938 13.039062 9.445312 13.039062 12.046875 11.808594 C 12.15625 11.898438 12.269531 11.988281 12.382812 12.074219 C 11.949219 12.332031 11.492188 12.558594 11.015625 12.738281 C 11.265625 13.238281 11.554688 13.71875 11.882812 14.167969 C 13.203125 13.753906 14.546875 13.128906 15.933594 12.089844 C 16.265625 8.574219 15.363281 5.523438 13.554688 2.820312 Z M 5.34375 10.226562 C 4.550781 10.226562 3.902344 9.488281 3.902344 8.589844 C 3.902344 7.691406 4.539062 6.949219 5.34375 6.949219 C 6.144531 6.949219 6.792969 7.6875 6.78125 8.589844 C 6.78125 9.488281 6.144531 10.226562 5.34375 10.226562 Z M 10.65625 10.226562 C 9.867188 10.226562 9.21875 9.488281 9.21875 8.589844 C 9.21875 7.691406 9.855469 6.949219 10.65625 6.949219 C 11.460938 6.949219 12.109375 7.6875 12.097656 8.589844 C 12.097656 9.488281 11.460938 10.226562 10.65625 10.226562 Z M 10.65625 10.226562 "/>
</g>
</svg>
