<?xml version="1.0" encoding="UTF-8"?>
<svg xmlns="http://www.w3.org/2000/svg" xmlns:xlink="http://www.w3.org/1999/xlink" width="16px" height="16px" viewBox="0 0 16 15" version="1.1">
<g id="surface1">
<path style=" stroke:none;fill-rule:evenodd;fill:rgb(14.117648%,16.078432%,18.431373%);fill-opacity:1;" d="M 7.976562 0 C 3.566406 0 0 3.4375 0 7.691406 C 0 11.089844 2.285156 13.96875 5.453125 14.984375 C 5.851562 15.0625 5.996094 14.820312 5.996094 14.617188 C 5.996094 14.4375 5.980469 13.828125 5.980469 13.191406 C 3.761719 13.648438 3.300781 12.273438 3.300781 12.273438 C 2.945312 11.382812 2.417969 11.152344 2.417969 11.152344 C 1.691406 10.683594 2.46875 10.683594 2.46875 10.683594 C 3.273438 10.734375 3.699219 11.472656 3.699219 11.472656 C 4.410156 12.644531 5.558594 12.3125 6.023438 12.109375 C 6.085938 11.613281 6.300781 11.269531 6.523438 11.078125 C 4.753906 10.898438 2.890625 10.238281 2.890625 7.28125 C 2.890625 6.441406 3.207031 5.753906 3.710938 5.21875 C 3.632812 5.027344 3.355469 4.238281 3.789062 3.183594 C 3.789062 3.183594 4.464844 2.980469 5.980469 3.972656 C 6.632812 3.804688 7.300781 3.71875 7.976562 3.71875 C 8.648438 3.71875 9.335938 3.808594 9.96875 3.972656 C 11.488281 2.980469 12.164062 3.183594 12.164062 3.183594 C 12.597656 4.238281 12.320312 5.027344 12.242188 5.21875 C 12.757812 5.753906 13.058594 6.441406 13.058594 7.28125 C 13.058594 10.238281 11.199219 10.886719 9.414062 11.078125 C 9.707031 11.320312 9.957031 11.777344 9.957031 12.503906 C 9.957031 13.535156 9.945312 14.363281 9.945312 14.617188 C 9.945312 14.820312 10.089844 15.0625 10.484375 14.984375 C 13.65625 13.96875 15.9375 11.089844 15.9375 7.691406 C 15.953125 3.4375 12.375 0 7.976562 0 Z M 7.976562 0 "/>
</g>
</svg>
