<svg version="1.1" id="Icons" xmlns="http://www.w3.org/2000/svg" xmlns:xlink="http://www.w3.org/1999/xlink" viewBox="0 0 32 32" xml:space="preserve" width="20px" height="16px" fill="#808080" stroke="#808080"><g id="SVGRepo_bgCarrier" stroke-width="0"></g><g id="SVGRepo_tracerCarrier" stroke-linecap="round" stroke-linejoin="round" stroke="#CCCCCC" stroke-width="0.576"></g><g id="SVGRepo_iconCarrier"> <style type="text/css"> .st0{fill:none;stroke:#808080;stroke-width:2;stroke-linecap:round;stroke-linejoin:round;stroke-miterlimit:10;} .st1{fill:none;stroke:#808080;stroke-width:2;stroke-linejoin:round;stroke-miterlimit:10;} </style> <path class="st0" d="M26,12H6c-1.1,0-2-0.9-2-2V6c0-1.1,0.9-2,2-2h20c1.1,0,2,0.9,2,2v4C28,11.1,27.1,12,26,12z"></path> <line class="st0" x1="8" y1="7" x2="8" y2="9"></line> <line class="st0" x1="11" y1="7" x2="11" y2="9"></line> <g> <path d="M21,10c-0.3,0-0.5-0.1-0.7-0.3C20.1,9.5,20,9.3,20,9c0-0.1,0-0.3,0.1-0.4c0.1-0.1,0.1-0.2,0.2-0.3c0.1-0.1,0.2-0.2,0.3-0.2 C21,7.9,21.4,8,21.7,8.3c0.1,0.1,0.2,0.2,0.2,0.3C22,8.7,22,8.9,22,9c0,0.3-0.1,0.5-0.3,0.7C21.5,9.9,21.3,10,21,10z"></path> </g> <g> <path d="M24,10c-0.3,0-0.5-0.1-0.7-0.3C23.1,9.5,23,9.3,23,9c0-0.1,0-0.3,0.1-0.4c0.1-0.1,0.1-0.2,0.2-0.3c0.1-0.1,0.2-0.2,0.3-0.2 C24,7.9,24.4,8,24.7,8.3c0.1,0.1,0.2,0.2,0.2,0.3C25,8.7,25,8.9,25,9c0,0.3-0.1,0.5-0.3,0.7C24.5,9.9,24.3,10,24,10z"></path> </g> <path class="st0" d="M26,20H6c-1.1,0-2-0.9-2-2v-4c0-1.1,0.9-2,2-2h20c1.1,0,2,0.9,2,2v4C28,19.1,27.1,20,26,20z"></path> <line class="st0" x1="8" y1="15" x2="8" y2="17"></line> <line class="st0" x1="11" y1="15" x2="11" y2="17"></line> <g> <path d="M21,18c-0.3,0-0.5-0.1-0.7-0.3C20.1,17.5,20,17.3,20,17c0-0.1,0-0.3,0.1-0.4c0.1-0.1,0.1-0.2,0.2-0.3 c0.1-0.1,0.2-0.2,0.3-0.2c0.4-0.1,0.8-0.1,1.1,0.2c0.1,0.1,0.2,0.2,0.2,0.3C22,16.7,22,16.9,22,17c0,0.3-0.1,0.5-0.3,0.7 C21.5,17.9,21.3,18,21,18z"></path> </g> <g> <path d="M24,18c-0.3,0-0.5-0.1-0.7-0.3C23.1,17.5,23,17.3,23,17c0-0.1,0-0.3,0.1-0.4c0.1-0.1,0.1-0.2,0.2-0.3 c0.1-0.1,0.2-0.2,0.3-0.2c0.4-0.1,0.8-0.1,1.1,0.2c0.1,0.1,0.2,0.2,0.2,0.3C25,16.7,25,16.9,25,17c0,0.3-0.1,0.5-0.3,0.7 C24.5,17.9,24.3,18,24,18z"></path> </g> <circle class="st0" cx="16" cy="28" r="2"></circle> <line class="st0" x1="16" y1="20" x2="16" y2="26"></line> <line class="st0" x1="9" y1="28" x2="14" y2="28"></line> <line class="st0" x1="18" y1="28" x2="23" y2="28"></line> </g></svg>