<?xml version="1.0" encoding="UTF-8"?>
<svg xmlns="http://www.w3.org/2000/svg" xmlns:xlink="http://www.w3.org/1999/xlink" width="128" height="128" viewBox="0 0 128 128" version="1.1">
<g id="surface1">
<path style=" stroke:none;fill-rule:nonzero;fill:rgb(31.764706%,16.862745%,83.137255%);fill-opacity:1;" d="M 14 120 C 6.28125 120 0 113.71875 0 106 C 0 103.484375 0.664062 101.035156 1.921875 98.914062 L 35.273438 41.148438 L 35.40625 40.945312 L 51.871094 12.394531 C 54.371094 8.074219 59.015625 5.394531 64 5.394531 C 68.984375 5.394531 73.628906 8.074219 76.125 12.390625 L 126.125 98.996094 C 127.332031 101.03125 127.996094 103.480469 127.996094 105.996094 C 127.996094 113.714844 121.714844 119.996094 113.996094 119.996094 Z M 14 120 "/>
<path style=" stroke:none;fill-rule:nonzero;fill:rgb(45.490196%,33.333333%,86.666667%);fill-opacity:1;" d="M 101.320312 72 L 67.960938 72 L 64 65.121094 L 52.519531 45.238281 C 52 44.359375 51.28125 43.601562 50.320312 43.078125 C 47.480469 41.398438 43.800781 42.398438 42.121094 45.28125 L 58.800781 16.398438 C 59.839844 14.601562 61.761719 13.398438 64 13.398438 C 66.238281 13.398438 68.160156 14.601562 69.199219 16.398438 L 85.800781 45.160156 L 85.839844 45.238281 L 85.921875 45.359375 Z M 101.320312 72 "/>
<path style=" stroke:none;fill-rule:nonzero;fill:rgb(59.215686%,50.196078%,89.803922%);fill-opacity:1;" d="M 120 106 C 120 109.320312 117.320312 112 114 112 L 80.679688 112 C 84 112 86.679688 109.320312 86.679688 106 C 86.679688 104.921875 86.359375 103.878906 85.878906 103 L 69.199219 74.121094 L 67.960938 72 L 101.320312 72 L 119.199219 103 C 119.71875 103.878906 120 104.921875 120 106 Z M 120 106 "/>
<path style=" stroke:none;fill-rule:nonzero;fill:rgb(72.54902%,66.666667%,93.333333%);fill-opacity:1;" d="M 86.679688 106 C 86.679688 109.320312 84 112 80.679688 112 L 47.320312 112 C 50.640625 112 53.320312 109.320312 53.320312 106 C 53.320312 104.921875 53.039062 103.878906 52.519531 103 C 52.519531 102.960938 52.480469 102.921875 52.441406 102.878906 L 47.160156 94.28125 L 35.28125 74.878906 C 34.199219 73.121094 32.28125 72 30.160156 72 L 67.960938 72 L 69.199219 74.121094 L 69.707031 75 L 85.878906 103 C 86.359375 103.878906 86.679688 104.921875 86.679688 106 Z M 86.679688 106 "/>
<path style=" stroke:none;fill-rule:nonzero;fill:rgb(86.27451%,83.529412%,96.470588%);fill-opacity:1;" d="M 53.320312 106 C 53.320312 109.320312 50.640625 112 47.320312 112 L 14 112 C 10.679688 112 8 109.320312 8 106 C 8 104.921875 8.28125 103.878906 8.800781 103 L 24.960938 75 C 26.039062 73.160156 28.039062 72 30.160156 72 C 32.28125 72 34.199219 73.121094 35.28125 74.878906 L 47.160156 94.28125 L 52.441406 102.878906 C 52.480469 102.921875 52.519531 102.960938 52.519531 103 C 53.039062 103.878906 53.320312 104.921875 53.320312 106 Z M 53.320312 106 "/>
<path style=" stroke:none;fill-rule:nonzero;fill:rgb(59.215686%,50.196078%,89.803922%);fill-opacity:1;" d="M 67.960938 72 L 30.160156 72 C 28.039062 72 26.039062 73.160156 24.960938 75 L 26.679688 72 L 41.960938 45.558594 L 42.121094 45.320312 L 42.121094 45.28125 C 43.800781 42.398438 47.480469 41.398438 50.320312 43.078125 C 51.28125 43.601562 52 44.359375 52.519531 45.238281 L 64 65.121094 Z M 67.960938 72 "/>
</g>
</svg>
