<svg width="64" height="64" viewBox="0 0 64 64" fill="none" xmlns="http://www.w3.org/2000/svg">
<path d="M7 60C3.14 60 0 56.86 0 53C0 51.742 0.332 50.518 0.96 49.458L17.636 20.574L17.704 20.472L25.936 6.198C27.186 4.038 29.508 2.698 32 2.698C34.492 2.698 36.814 4.038 38.062 6.196L63.062 49.498C63.666 50.516 63.998 51.74 63.998 52.998C63.998 56.858 60.858 59.998 56.998 59.998L7 60Z" fill="#512BD4"/>
<path d="M50.6601 36H33.9801L32.0001 32.56L26.2601 22.62C26.0001 22.18 25.6401 21.8 25.1601 21.54C23.7401 20.7 21.9001 21.2 21.0601 22.64L29.4001 8.20001C29.9201 7.30001 30.8801 6.70001 32.0001 6.70001C33.1201 6.70001 34.0801 7.30001 34.6001 8.20001L42.9001 22.58L42.9201 22.62L42.9601 22.68L50.6601 36Z" fill="#7455DD"/>
<path d="M60 53C60 54.66 58.66 56 57 56H40.34C42 56 43.34 54.66 43.34 53C43.34 52.46 43.18 51.94 42.94 51.5L34.6 37.06L33.98 36H50.66L59.6 51.5C59.86 51.94 60 52.46 60 53Z" fill="#9780E5"/>
<path d="M43.34 53C43.34 54.66 42 56 40.34 56H23.66C25.32 56 26.66 54.66 26.66 53C26.66 52.46 26.52 51.94 26.26 51.5C26.26 51.48 26.24 51.46 26.22 51.44L23.58 47.14L17.64 37.44C17.1 36.56 16.14 36 15.08 36H33.98L34.6 37.06L34.854 37.5L42.94 51.5C43.18 51.94 43.34 52.46 43.34 53Z" fill="#B9AAEE"/>
<path d="M26.66 53C26.66 54.66 25.32 56 23.66 56H7C5.34 56 4 54.66 4 53C4 52.46 4.14 51.94 4.4 51.5L12.48 37.5C13.02 36.58 14.02 36 15.08 36C16.14 36 17.1 36.56 17.64 37.44L23.58 47.14L26.22 51.44C26.24 51.46 26.26 51.48 26.26 51.5C26.52 51.94 26.66 52.46 26.66 53Z" fill="#DCD5F6"/>
<path d="M33.98 36H15.08C14.02 36 13.02 36.58 12.48 37.5L13.34 36L20.98 22.78L21.06 22.66V22.64C21.9 21.2 23.74 20.7 25.16 21.54C25.64 21.8 26 22.18 26.26 22.62L32 32.56L33.98 36Z" fill="#9780E5"/>
</svg>
