<svg width="48" height="48" viewBox="0 0 48 48" fill="none" xmlns="http://www.w3.org/2000/svg">
<path d="M5.25 45C2.355 45 0 42.645 0 39.75C0 38.8065 0.249 37.8885 0.72 37.0935L13.227 15.4305L13.278 15.354L19.452 4.6485C20.3895 3.0285 22.131 2.0235 24 2.0235C25.869 2.0235 27.6105 3.0285 28.5465 4.647L47.2965 37.1235C47.7495 37.887 47.9985 38.805 47.9985 39.7485C47.9985 42.6435 45.6435 44.9985 42.7485 44.9985L5.25 45Z" fill="#512BD4"/>
<path d="M37.995 27H25.485L24 24.42L19.695 16.965C19.5 16.635 19.23 16.35 18.87 16.155C17.805 15.525 16.425 15.9 15.795 16.98L22.05 6.14999C22.44 5.47499 23.16 5.02499 24 5.02499C24.84 5.02499 25.56 5.47499 25.95 6.14999L32.175 16.935L32.19 16.965L32.22 17.01L37.995 27Z" fill="#7455DD"/>
<path d="M45 39.75C45 40.995 43.995 42 42.75 42H30.255C31.5 42 32.505 40.995 32.505 39.75C32.505 39.345 32.385 38.955 32.205 38.625L25.95 27.795L25.485 27H37.995L44.7 38.625C44.895 38.955 45 39.345 45 39.75Z" fill="#9780E5"/>
<path d="M32.5051 39.75C32.5051 40.995 31.5001 42 30.2551 42H17.7451C18.9901 42 19.9951 40.995 19.9951 39.75C19.9951 39.345 19.8901 38.955 19.6951 38.625C19.6951 38.61 19.6801 38.595 19.6651 38.58L17.6851 35.355L13.2301 28.08C12.8251 27.42 12.1051 27 11.3101 27H25.4851L25.9501 27.795L26.1406 28.125L32.2051 38.625C32.3851 38.955 32.5051 39.345 32.5051 39.75Z" fill="#B9AAEE"/>
<path d="M19.995 39.75C19.995 40.995 18.99 42 17.745 42H5.25C4.005 42 3 40.995 3 39.75C3 39.345 3.105 38.955 3.3 38.625L9.36 28.125C9.765 27.435 10.515 27 11.31 27C12.105 27 12.825 27.42 13.23 28.08L17.685 35.355L19.665 38.58C19.68 38.595 19.695 38.61 19.695 38.625C19.89 38.955 19.995 39.345 19.995 39.75Z" fill="#DCD5F6"/>
<path d="M25.485 27H11.31C10.515 27 9.76499 27.435 9.35999 28.125L10.005 27L15.735 17.085L15.795 16.995V16.98C16.425 15.9 17.805 15.525 18.87 16.155C19.23 16.35 19.5 16.635 19.695 16.965L24 24.42L25.485 27Z" fill="#9780E5"/>
</svg>
